<?xml version="1.0" encoding="UTF-8" standalone="no"?>
<!-- Created with Inkscape (http://www.inkscape.org/) -->

<svg
   width="210mm"
   height="297mm"
   viewBox="0 0 210 297"
   version="1.1"
   id="svg1"
   xml:space="preserve"
   inkscape:export-filename="email.png"
   inkscape:export-xdpi="94.587212"
   inkscape:export-ydpi="94.587212"
   inkscape:version="1.4.2 (f4327f4, 2025-05-13)"
   sodipodi:docname="editar logos.svg"
   xmlns:inkscape="http://www.inkscape.org/namespaces/inkscape"
   xmlns:sodipodi="http://sodipodi.sourceforge.net/DTD/sodipodi-0.dtd"
   xmlns="http://www.w3.org/2000/svg"
   xmlns:svg="http://www.w3.org/2000/svg"><sodipodi:namedview
     id="namedview1"
     pagecolor="#ffffff"
     bordercolor="#000000"
     borderopacity="0.25"
     inkscape:showpageshadow="2"
     inkscape:pageopacity="0.0"
     inkscape:pagecheckerboard="0"
     inkscape:deskcolor="#d1d1d1"
     inkscape:document-units="mm"
     inkscape:zoom="0.71891835"
     inkscape:cx="397.12437"
     inkscape:cy="561.25984"
     inkscape:window-width="1920"
     inkscape:window-height="1009"
     inkscape:window-x="-8"
     inkscape:window-y="-8"
     inkscape:window-maximized="1"
     inkscape:current-layer="layer1" /><defs
     id="defs1"><clipPath
       clipPathUnits="userSpaceOnUse"
       id="clipPath1"><rect
         style="fill:#000000;stroke-width:0.264583"
         id="rect2"
         width="172.60596"
         height="170.76581"
         x="1.472119"
         y="39.379181" /></clipPath></defs><g
     inkscape:label="Camada 1"
     inkscape:groupmode="layer"
     id="layer1"><path
       style="fill:#330080"
       d="m 183.74111,203.52507 c -1.69468,-0.55981 -2.77371,-1.20695 -4.13396,-2.47931 -2.45579,-2.29711 -3.57773,-5.17393 -3.32436,-8.52415 0.0829,-1.09574 0.27759,-2.03456 0.43271,-2.08627 0.15512,-0.0517 0.21451,-0.20325 0.132,-0.33677 -0.26063,-0.4217 1.28552,-2.93637 2.64028,-4.29415 3.89303,-3.90172 10.23287,-4.02654 14.40231,-0.28357 5.56932,4.99969 4.19723,14.14665 -2.60836,17.38843 -1.46307,0.69692 -2.07525,0.83012 -4.10104,0.8923 -1.45952,0.0448 -2.79091,-0.0622 -3.43958,-0.27651 z m 5.71853,-0.99459 c 1.42335,-0.35527 3.6836,-1.96323 4.73082,-3.36554 0.5084,-0.68079 0.98465,-1.29732 1.05834,-1.37008 0.0737,-0.0728 0.1575,-0.31088 0.18625,-0.52917 0.0288,-0.21828 0.18868,-0.93265 0.35541,-1.5875 0.43322,-1.7015 0.14604,-4.50462 -0.63666,-6.21425 -0.84301,-1.84138 -2.7063,-3.6945 -4.61383,-4.58863 -1.30188,-0.61025 -1.8496,-0.70649 -4.02074,-0.70649 -2.22136,0 -2.6901,0.0867 -4.03241,0.74585 -4.0132,1.9707 -6.35342,6.93339 -5.12816,10.87484 0.22259,0.71606 0.3437,1.40067 0.26912,1.52135 -0.0746,0.12068 -0.003,0.21942 0.15809,0.21942 0.16153,0 0.45851,0.39445 0.65995,0.87656 0.20143,0.4821 0.87997,1.35006 1.50785,1.92879 2.55359,2.35368 5.83462,3.11124 9.50597,2.19485 z m -6.37999,-9.10124 v -5.68855 h 2.10364 c 4.03953,0 5.68701,0.74214 6.00559,2.70532 0.2661,1.63977 -0.97862,3.3801 -2.41752,3.3801 -0.72964,0 -0.62183,0.46645 0.49408,2.13774 0.62382,0.9343 1.34638,2.02614 1.60569,2.42632 l 0.47146,0.72761 -0.75803,-0.01 c -0.66699,-0.009 -0.94623,-0.31064 -2.32501,-2.51354 l -1.56697,-2.5036 h -1.14501 -1.145 v 2.51355 c 0,2.50472 -0.002,2.51354 -0.66146,2.51354 h -0.66146 z m 6.05095,-1.02917 c 0.71929,-0.77611 0.80798,-2.09875 0.18675,-2.7852 -0.42962,-0.47473 -0.8054,-0.55126 -2.70683,-0.55126 h -2.20795 v 1.99814 1.99814 l 2.10528,-0.0507 c 1.76272,-0.0425 2.18948,-0.14159 2.62275,-0.60908 z m -169.686172,9.86285 c -3.760978,-1.29629 -6.710622,-4.586 -7.517041,-8.38369 -0.47407,-2.23255 -0.413402,-137.577447 0.06247,-139.35624 1.065656,-3.98342 4.223011,-7.195776 8.046327,-8.186497 1.415192,-0.366713 8.916274,-0.402903 70.341404,-0.339366 37.816502,0.03912 69.173992,0.164483 69.683312,0.278593 3.53633,0.792284 7.73474,4.816315 8.04316,7.709084 0.0329,0.308314 0.17137,0.734128 0.30778,0.946253 0.34508,0.536626 0.47881,135.830133 0.13647,138.058883 -0.5838,3.80064 -3.01954,7.09236 -6.51032,8.79821 l -1.8448,0.9015 -69.585402,0.0586 -69.585415,0.0586 z M 58.196326,142.23236 V 104.66153 H 46.422368 34.64841 v 37.57083 37.57083 h 11.773958 11.773958 z m 38.114418,37.10781 c 0.008,-0.25466 0.0446,-10.16661 0.0815,-22.02656 0.0659,-21.19087 0.077,-21.60125 0.64286,-23.74562 0.67789,-2.56906 1.76466,-4.81284 3.043926,-6.28458 0.86896,-0.99971 3.43932,-2.75685 4.20159,-2.87229 0.19254,-0.0291 0.47522,-0.13135 0.62818,-0.2271 1.11601,-0.6986 7.88535,-0.93991 8.88479,-0.31671 0.19916,0.12418 0.5768,0.25922 0.83921,0.30008 0.84682,0.13185 1.98316,0.84082 3.31694,2.06945 2.35669,2.17088 3.65388,5.86325 3.94636,11.23302 0.0832,1.52797 0.19947,11.67805 0.25833,22.55573 l 0.10702,19.7776 h 11.75673 11.75674 l -0.0911,-23.61406 c -0.0942,-24.4268 -0.19497,-27.02015 -1.25465,-32.28536 -2.46111,-12.22844 -8.29533,-18.41497 -19.4256,-20.59866 -1.20317,-0.23606 -3.75249,-0.36337 -7.27604,-0.36337 -4.92853,0 -5.6173,0.0571 -7.54063,0.62532 -5.77455,1.70597 -10.696879,5.20151 -13.765076,9.77513 l -1.18387,1.76473 v -5.22269 -5.2227 H 83.993204 72.748408 v 37.57083 37.57083 h 11.773956 c 11.03141,0 11.77487,-0.0292 11.78838,-0.46302 z M 48.539035,94.344723 c 4.958006,-0.81071 8.9761,-4.05863 10.72782,-8.67154 0.7167,-1.88735 0.96651,-5.439416 0.530235,-7.539456 -0.496395,-2.38944 -2.008977,-5.147158 -3.74579,-6.829279 -5.483992,-5.3113 -13.632439,-5.288427 -19.087532,0.05358 -5.245401,5.136661 -5.441142,13.173815 -0.459039,18.848115 1.634861,1.86201 4.991684,3.67135 7.668681,4.13346 1.717789,0.29653 2.577327,0.29753 4.365625,0.005 z"
       id="path1"
       clip-path="url(#clipPath1)"
       transform="matrix(0.29101851,0,0,0.2888421,21.105865,24.596538)" /><path
       style="fill:#4400aa"
       d="m 88.058519,80.691476 c -0.477578,-0.23539 -1.132421,-0.79822 -1.455213,-1.25075 l -0.586894,-0.82277 -0.07203,-16.35177 c -0.08098,-18.38246 -0.160997,-17.57679 1.879823,-18.92757 l 1.063628,-0.70399 21.527007,-0.0736 c 14.68671,-0.0502 21.86119,0.0164 22.5787,0.20957 1.39278,0.37504 2.82277,1.66632 3.17291,2.86515 0.19071,0.65295 0.25631,6.1373 0.20171,16.86345 l -0.0809,15.89581 -0.74128,0.97166 c -1.43244,1.87762 0.12598,1.76551 -24.44714,1.75883 -19.882427,-0.005 -22.261657,-0.0502 -23.040297,-0.434 z m 45.023821,-3.06613 c 0.25156,-0.39883 -0.63629,-1.39206 -6.36697,-7.12275 l -6.6593,-6.65929 -2.07087,1.93893 c -2.76454,2.5884 -4.3044,3.30034 -7.09796,3.28166 -2.85549,-0.0191 -4.14036,-0.62574 -6.79319,-3.20733 l -2.08892,-2.03282 -6.728611,6.72473 c -6.34203,6.33837 -6.70389,6.75205 -6.29832,7.2002 0.40838,0.45126 1.53429,0.47202 22.121061,0.40779 20.33521,-0.0634 21.70903,-0.0966 21.98308,-0.53112 z m -38.798461,-21.56236 -5.75393,-5.75392 v 11.50785 11.50785 l 5.75393,-5.75392 5.753931,-5.75393 z m 39.225241,5.69004 v -11.44097 l -5.82083,5.81632 -5.82084,5.81632 5.62009,5.62465 c 3.09105,3.09356 5.71042,5.62465 5.82083,5.62465 0.11041,0 0.20075,-5.14843 0.20075,-11.44097 z m -19.67907,3.80861 c 0.57324,-0.29827 5.1115,-4.62792 10.28498,-9.81222 7.97814,-7.99483 9.21864,-9.34246 8.96702,-9.74139 -0.27366,-0.43387 -1.65596,-0.46724 -21.98279,-0.53066 -21.170981,-0.0661 -21.701901,-0.0554 -22.154971,0.44525 -0.45094,0.49829 -0.19456,0.77966 8.981573,9.85726 5.195168,5.13938 9.641458,9.45711 9.880658,9.59496 1.82962,1.05441 4.21395,1.12835 6.02353,0.1868 z"
       id="path2" /></g></svg>
