<?xml version="1.0" encoding="UTF-8" standalone="no"?>
<!-- Created with Inkscape (http://www.inkscape.org/) -->

<svg
   version="1.1"
   id="svg1"
   width="428.46317"
   height="320.33685"
   viewBox="0 0 428.46317 320.33685"
   sodipodi:docname="logo3.svg"
   inkscape:export-filename="email4.png"
   inkscape:export-xdpi="96"
   inkscape:export-ydpi="96"
   inkscape:version="1.4.2 (f4327f4, 2025-05-13)"
   xmlns:inkscape="http://www.inkscape.org/namespaces/inkscape"
   xmlns:sodipodi="http://sodipodi.sourceforge.net/DTD/sodipodi-0.dtd"
   xmlns="http://www.w3.org/2000/svg"
   xmlns:svg="http://www.w3.org/2000/svg">
  <defs
     id="defs1">
    <clipPath
       clipPathUnits="userSpaceOnUse"
       id="clipPath1">
      <rect
         style="opacity:0.8;fill:#aa00d4;stroke-width:0.983999"
         id="rect2"
         width="195.59404"
         height="194.79242"
         x="12.024223"
         y="8.8177643" />
    </clipPath>
    <clipPath
       clipPathUnits="userSpaceOnUse"
       id="clipPath3">
      <rect
         style="opacity:0.8;fill:#aa00d4"
         id="rect4"
         width="222.84894"
         height="182.7682"
         x="459.32535"
         y="214.83279" />
    </clipPath>
    <clipPath
       clipPathUnits="userSpaceOnUse"
       id="clipPath5">
      <rect
         style="opacity:0.8;fill:#aa00d4"
         id="rect6"
         width="198.95639"
         height="153.61021"
         x="476.13495"
         y="236.93382" />
    </clipPath>
    <clipPath
       clipPathUnits="userSpaceOnUse"
       id="clipPath7">
      <rect
         style="opacity:0.8;fill:#aa00d4"
         id="rect8"
         width="181.95157"
         height="175.71648"
         x="18.138474"
         y="20.97261" />
    </clipPath>
  </defs>
  <sodipodi:namedview
     id="namedview1"
     pagecolor="#ffffff"
     bordercolor="#000000"
     borderopacity="0.25"
     inkscape:showpageshadow="2"
     inkscape:pageopacity="0.0"
     inkscape:pagecheckerboard="0"
     inkscape:deskcolor="#d1d1d1"
     showgrid="false"
     inkscape:zoom="1.7642057"
     inkscape:cx="295.60045"
     inkscape:cy="123.28494"
     inkscape:window-width="1920"
     inkscape:window-height="1009"
     inkscape:window-x="-8"
     inkscape:window-y="-8"
     inkscape:window-maximized="1"
     inkscape:current-layer="g1" />
  <g
     inkscape:groupmode="layer"
     inkscape:label="Image"
     id="g1">
    <path
       style="fill:#ffffff"
       d="m 29.877104,467.20083 -3.77463,-3.45871 -0.31669,-70.56234 c -0.17417,-38.80929 -0.0179,-73.89969 0.34729,-77.97865 0.55346,-6.18205 1.13894,-7.94791 3.518,-10.61053 l 2.85403,-3.19422 h 78.884506 78.88451 l 3.30365,3.30333 3.30364,3.30332 0.27123,76.79511 c 0.23814,67.42782 0.082,77.16107 -1.28026,79.79536 -3.26168,6.30738 0.11416,6.06604 -84.85036,6.06604 H 33.651734 Z m 47.25695,-61.72024 v -40.92632 h -13.13685 -13.13684 v 40.92632 40.92631 h 13.13684 13.13685 z m 41.453766,16.42105 c 0.0198,-21.86238 0.22863,-24.95995 1.93637,-28.72122 2.54297,-5.60085 5.91217,-7.66692 12.66176,-7.76449 4.07063,-0.0588 6.01706,0.4248 7.68168,1.90872 4.29447,3.82826 4.83092,7.06136 5.58244,33.64434 l 0.71915,25.43791 h 12.98241 12.98241 l -0.0691,-10.35789 c -0.17359,-26.02377 -1.72915,-51.82714 -3.4044,-56.47166 -4.11606,-11.41149 -13.26764,-17.04413 -27.69232,-17.04413 -9.19463,0 -16.21588,2.86049 -21.33654,8.69259 l -3.07659,3.50405 v -5.08779 -5.0878 H 104.92351 92.291934 v 40.92632 40.92631 h 13.136836 13.13684 z M 70.700514,351.79096 c 13.67657,-6.48996 8.55719,-27.66657 -6.68525,-27.65396 -11.39035,0.009 -18.44598,11.16559 -13.40596,21.19713 3.66254,7.28983 12.41094,10.10136 20.09121,6.45683 z m 231.453146,112.92328 -17.00143,-0.62313 -4.02991,-4.32306 -4.02991,-4.32306 0.3367,-61.86641 c 0.24453,-44.93078 0.66555,-62.61584 1.53801,-64.60408 0.66072,-1.50572 3.10949,-4.00046 5.44172,-5.54385 l 4.24041,-2.80617 71.8424,-0.3481 c 79.76309,-0.38647 94.45109,0.16781 99.48794,3.75436 7.00287,4.98648 6.71416,1.97513 6.69579,69.83934 l -0.0165,61.14738 -2.86844,3.76071 c -1.73379,2.27312 -4.32546,4.21137 -6.55187,4.89999 -4.1586,1.28624 -126.04286,2.10052 -155.08486,1.03608 z m 139.19432,-11.09623 c 9.41416,-0.46341 13.17826,-1.01217 13.49416,-1.96726 0.38127,-1.15274 -47.77675,-50.74079 -49.24132,-50.7035 -0.30304,0.008 -4.10094,3.15289 -8.43977,6.98929 -10.88809,9.62724 -15.17241,11.53276 -25.96385,11.54784 -10.65815,0.0149 -14.41153,-1.70997 -25.61427,-11.77102 l -7.93007,-7.1219 -24.77518,24.8341 c -13.86109,13.89406 -24.57988,25.41998 -24.33185,26.16406 0.24382,0.73148 1.54644,1.63823 2.89471,2.015 3.09731,0.86553 132.3618,0.87709 149.90744,0.0134 z M 308.79423,371.3783 287.32352,349.90759 v 42.94142 42.94142 l 21.47071,-21.47071 21.47071,-21.47071 z m 147.28718,21.22689 v -42.68592 l -21.72632,21.70869 -21.72631,21.70868 20.9594,20.97724 c 11.52766,11.53748 21.3045,20.97723 21.72631,20.97723 0.4218,0 0.76692,-19.20866 0.76692,-42.68592 z m -75.33011,14.98075 c 2.0284,-0.84751 15.88471,-13.72998 33.96614,-31.57894 33.79696,-33.36245 41.12595,-41.3999 39.36092,-43.16581 -1.21551,-1.21612 -156.16224,-2.30235 -162.46011,-1.13889 -2.2232,0.4107 -3.28421,1.1781 -3.28421,2.37537 0,0.97746 15.03081,16.75318 33.6,35.26518 34.45808,34.35196 37.25249,36.9613 41.33371,38.59636 3.62529,1.4524 13.64661,1.24991 17.48355,-0.35327 z M 31.657974,191.96687 c -1.86493,-0.95061 -4.33258,-3.01252 -5.48367,-4.58201 -2.07326,-2.82685 -2.09289,-3.57095 -2.09289,-79.32631 V 31.58586 l 2.31724,-3.24874 c 1.43362,-2.00992 3.74564,-3.64545 6.06316,-4.2891 C 36.808334,22.84085 170.2414,22.68 182.1045,23.86763 c 6.67125,0.66787 7.75977,1.08776 10.35789,3.99557 l 2.90323,3.24928 -0.004,76.53142 c -0.004,73.99757 -0.0688,76.63803 -1.96698,79.75114 -1.07976,1.77085 -2.78333,3.64167 -3.7857,4.1574 -1.04165,0.53593 -34.54245,1.19584 -78.19145,1.54025 -70.778616,0.55846 -76.617166,0.47605 -79.759746,-1.12582 z m 43.45502,-64.38101 V 86.65954 h -13.13684 -13.13684 v 40.92632 40.92631 h 13.13684 13.13684 z m 41.606456,15.91579 c 0.36513,-27.64073 1.07095,-31.09157 6.98489,-34.14978 3.76628,-1.94762 12.00481,-1.88891 14.85273,0.10586 5.20413,3.64511 5.6592,6.14824 6.09726,33.53865 l 0.40808,25.51579 h 13.17259 13.17258 l -0.56225,-29.05263 c -0.50589,-26.14045 -0.78455,-29.76168 -2.77995,-36.12632 C 164.09561,90.67099 154.969,84.62588 139.8559,84.64836 c -8.0058,0.0119 -15.82647,3.25262 -20.94391,8.67868 l -3.37795,3.58167 V 91.78412 86.65954 H 102.90247 90.270894 v 40.92632 40.92631 h 13.059086 13.05909 z M 70.163554,73.24992 c 3.9682,-2.65092 6.97397,-7.99416 6.9523,-12.3588 -0.0216,-4.35554 -3.95545,-10.60011 -8.05025,-12.77901 -9.46985,-5.03906 -20.85546,0.98718 -21.93174,11.60815 -0.86666,8.55238 5.95358,15.82349 14.84229,15.82349 3.26006,0 5.83265,-0.72075 8.1874,-2.29383 z M 271.1551,184.75728 c -8.47355,-0.66982 -10.98264,-1.73907 -13.71871,-5.84618 -1.77841,-2.66957 -1.88037,-6.08106 -1.91153,-63.95682 -0.0367,-68.14329 -0.17123,-66.68386 6.5574,-71.13665 l 3.97687,-2.63177 h 82.41202 c 90.54018,0 86.29601,-0.28889 92.05089,6.26555 l 3.10379,3.53502 0.67935,18.0076 c 0.37365,9.90418 0.37456,38.11809 0.002,62.69759 l -0.67733,44.68999 -3.12161,3.71706 c -3.08208,3.67 -3.24952,3.72847 -13.22686,4.6187 -10.99517,0.98105 -143.79107,1.01499 -156.12631,0.0399 z m 158.57771,-11.06845 c 1.34826,-0.37677 2.64237,-1.25796 2.87578,-1.9582 0.23341,-0.70024 -10.69968,-12.47346 -24.29576,-26.16272 l -24.72015,-24.88956 -8.47143,7.37961 c -11.35192,9.88886 -15.26699,11.63183 -26.15563,11.64434 -10.8768,0.0125 -15.2768,-2.00859 -25.83124,-11.86528 l -7.66605,-7.15923 -24.18827,24.16982 c -13.30355,13.2934 -24.45953,25.02238 -24.79107,26.0644 -0.34428,1.08206 -0.0147,2.26722 0.76849,2.76347 1.6026,1.01545 158.8431,1.02837 162.47533,0.0133 z m -142.67044,-38.76794 21.4824,-21.46497 -21.46497,-21.4824 c -11.80574,-11.81532 -21.80999,-21.4824 -22.23168,-21.4824 -0.42169,0 -0.76671,19.32632 -0.76671,42.94737 0,23.62105 0.33718,42.94736 0.74928,42.94736 0.4121,0 10.41636,-9.65923 22.23168,-21.46496 z M 433.84983,112.6835 V 69.99166 l -21.97895,22.02479 -21.97894,22.02479 20.93608,20.66705 c 11.51485,11.36687 21.40538,20.66703 21.97895,20.66703 0.70034,0 1.04286,-14.02186 1.04286,-42.69182 z m -77.53205,16.21532 c 3.13256,-0.93854 8.88096,-5.8192 25.3804,-21.54915 24.41867,-23.27987 51.43749,-51.62672 50.86435,-53.36445 -0.2381,-0.72191 -4.07604,-1.42806 -9.90856,-1.8231 -12.47505,-0.84493 -149.29824,-1.05849 -153.39361,-0.23942 -2.31429,0.46286 -3.1579,1.18942 -3.1579,2.71976 0,1.87587 37.60262,40.3301 63.7524,65.19623 10.34005,9.83247 16.66143,11.99673 26.46292,9.06013 z"
       id="path1"
       clip-path="url(#clipPath7)"
       transform="matrix(2.3719125,0,0,1.7900085,389.81559,41.303042)" />
    <path
       style="fill:#ffffff"
       d="m 232.90413,388.99566 -3.77463,-3.45871 -0.31669,-70.56234 c -0.17417,-38.80929 -0.0179,-73.89969 0.34729,-77.97865 0.55346,-6.18205 1.13894,-7.94791 3.518,-10.61053 l 2.85403,-3.19422 h 78.88451 78.88451 l 3.30365,3.30333 3.30364,3.30332 0.27123,76.79511 c 0.23814,67.42782 0.082,77.16107 -1.28026,79.79536 -3.26168,6.30738 0.11416,6.06604 -84.85036,6.06604 h -77.37029 z m 47.25695,-61.72024 V 286.3491 h -13.13685 -13.13684 v 40.92632 40.92631 h 13.13684 13.13685 z m 41.45377,16.42105 c 0.0198,-21.86238 0.22863,-24.95995 1.93637,-28.72122 2.54297,-5.60085 5.91217,-7.66692 12.66176,-7.76449 4.07063,-0.0588 6.01706,0.4248 7.68168,1.90872 4.29447,3.82826 4.83092,7.06136 5.58244,33.64434 l 0.71915,25.43791 h 12.98241 12.98241 l -0.0691,-10.35789 c -0.17359,-26.02377 -1.72915,-51.82714 -3.4044,-56.47166 -4.11606,-11.41149 -13.26764,-17.04413 -27.69232,-17.04413 -9.19463,0 -16.21588,2.86049 -21.33654,8.69259 l -3.07659,3.50405 v -5.08779 -5.0878 h -12.63158 -12.63158 v 40.92632 40.92631 h 13.13684 13.13684 z m -47.88731,-70.11068 c 13.67657,-6.48996 8.55719,-27.66657 -6.68525,-27.65396 -11.39035,0.009 -18.44598,11.16559 -13.40596,21.19713 3.66254,7.28983 12.41094,10.10136 20.09121,6.45683 z m 231.45315,112.92328 -17.00143,-0.62313 -4.02991,-4.32306 -4.02991,-4.32306 0.3367,-61.86641 c 0.24453,-44.93078 0.66555,-62.61584 1.53801,-64.60408 0.66072,-1.50572 3.10949,-4.00046 5.44172,-5.54385 l 4.24041,-2.80617 71.8424,-0.3481 c 79.76311,-0.38647 94.45111,0.16781 99.48791,3.75436 7.0029,4.98648 6.7142,1.97513 6.6958,69.83934 l -0.016,61.14738 -2.8684,3.76071 c -1.7338,2.27312 -4.3255,4.21137 -6.5519,4.89999 -4.1586,1.28624 -126.04285,2.10052 -155.08485,1.03608 z m 139.1943,-11.09623 c 9.4142,-0.46341 13.1783,-1.01217 13.4942,-1.96726 0.3812,-1.15274 -47.7768,-50.74079 -49.2413,-50.7035 -0.3031,0.008 -4.101,3.15289 -8.4398,6.98929 -10.8881,9.62724 -15.1724,11.53276 -25.9639,11.54784 -10.65811,0.0149 -14.41149,-1.70997 -25.61423,-11.77102 l -7.93007,-7.1219 -24.77518,24.8341 c -13.86109,13.89406 -24.57988,25.41998 -24.33185,26.16406 0.24382,0.73148 1.54644,1.63823 2.89471,2.015 3.09731,0.86553 132.36182,0.87709 149.90742,0.0134 z M 511.82126,293.17313 490.35055,271.70242 v 42.94142 42.94142 l 21.47071,-21.47071 21.47071,-21.47071 z m 147.28713,21.22689 V 271.7141 l -21.7263,21.70869 -21.7263,21.70868 20.9594,20.97724 c 11.5277,11.53748 21.3045,20.97723 21.7263,20.97723 0.4218,0 0.7669,-19.20866 0.7669,-42.68592 z m -75.3301,14.98075 c 2.0284,-0.84751 15.8847,-13.72998 33.9662,-31.57894 33.7969,-33.36245 41.1259,-41.3999 39.3609,-43.16581 -1.2155,-1.21612 -156.16224,-2.30235 -162.46011,-1.13889 -2.2232,0.4107 -3.28421,1.1781 -3.28421,2.37537 0,0.97746 15.03081,16.75318 33.6,35.26518 34.45808,34.35196 37.25249,36.9613 41.33371,38.59636 3.62531,1.4524 13.64661,1.24991 17.48351,-0.35327 z M 234.685,113.7617 c -1.86493,-0.95061 -4.33258,-3.01252 -5.48367,-4.58201 -2.07326,-2.82685 -2.09289,-3.57095 -2.09289,-79.326308 v -76.47269 l 2.31724,-3.24874 c 1.43362,-2.00992 3.74564,-3.64545 6.06316,-4.2891 4.34652,-1.20717 137.77959,-1.36802 149.64269,-0.18039 6.67125,0.66787 7.75977,1.08776 10.35789,3.99557 l 2.90323,3.24928 -0.004,76.53142 c -0.004,73.997568 -0.0688,76.638028 -1.96698,79.751138 -1.07976,1.77085 -2.78333,3.64167 -3.7857,4.1574 -1.04165,0.53593 -34.54245,1.19584 -78.19145,1.54025 -70.77862,0.55846 -76.61717,0.47605 -79.75975,-1.12582 z M 278.14002,49.380688 V 8.454372 h -13.13684 -13.13684 v 40.926316 40.926314 h 13.13684 13.13684 z m 41.60646,15.91579 c 0.36513,-27.64073 1.07095,-31.091566 6.98489,-34.149776 3.76628,-1.94762 12.00481,-1.88891 14.85273,0.10586 5.20413,3.64511 5.6592,6.14824 6.09726,33.538646 l 0.40808,25.515794 h 13.17259 13.17258 l -0.56225,-29.052634 c -0.50589,-26.140446 -0.78455,-29.761676 -2.77995,-36.126316 -3.96977,-12.66223 -13.09638,-18.70734 -28.20948,-18.68486 -8.0058,0.0119 -15.82647,3.25262 -20.94391,8.67868 l -3.37795,3.58167 v -5.12459 -5.12458 H 305.9295 293.29792 v 40.926316 40.926314 h 13.05909 13.05909 z m -46.5559,-70.251726 c 3.9682,-2.6509203 6.97397,-7.99416 6.9523,-12.3588 -0.0216,-4.35554 -3.95545,-10.60011 -8.05025,-12.77901 -9.46985,-5.03906 -20.85546,0.98718 -21.93174,11.60815 -0.86666,8.5523797 5.95358,15.82349 14.84229,15.82349 3.26006,0 5.83265,-0.72075 8.1874,-2.29383 z M 474.18213,106.55211 c -8.47355,-0.66982 -10.98264,-1.73907 -13.71871,-5.84618 -1.77841,-2.669568 -1.88037,-6.081058 -1.91153,-63.956818 -0.0367,-68.14329 -0.17123,-66.68386 6.5574,-71.13665 l 3.97687,-2.63177 h 82.41202 c 90.54021,0 86.29601,-0.28889 92.05091,6.26555 l 3.1038,3.53502 0.6793,18.0075997 c 0.3737,9.90418026 0.3746,38.1180903 0,62.6975863 l -0.6773,44.689994 -3.1216,3.717058 c -3.0821,3.67 -3.2495,3.72847 -13.2269,4.6187 -10.9952,0.98105 -143.79105,1.01499 -156.12629,0.0399 z M 632.75979,95.483662 c 1.3483,-0.37677 2.6424,-1.25796 2.8758,-1.9582 0.2334,-0.70024 -10.6997,-12.473464 -24.2957,-26.162724 l -24.7202,-24.88956 -8.4714,7.37961 c -11.35193,9.88886 -15.267,11.63183 -26.15564,11.64434 -10.8768,0.0125 -15.2768,-2.00859 -25.83124,-11.86528 l -7.66605,-7.15923 -24.18827,24.16982 c -13.30355,13.2934 -24.45953,25.022384 -24.79107,26.064404 -0.34428,1.08206 -0.0147,2.26722 0.76849,2.76347 1.6026,1.01545 158.84308,1.02837 162.47528,0.0133 z M 490.0894,56.715718 511.5718,35.250752 490.10683,13.768352 C 478.30109,1.953032 468.29684,-7.7140483 467.87515,-7.7140483 c -0.42169,0 -0.76671,19.3263203 -0.76671,42.9473703 0,23.621046 0.33718,42.947356 0.74928,42.947356 0.4121,0 10.41636,-9.65923 22.23168,-21.46496 z M 636.87689,34.478332 V -8.2135083 l -21.979,22.0247903 -21.9789,22.02479 20.9361,20.667046 c 11.5148,11.36687 21.4053,20.66703 21.9789,20.66703 0.7003,0 1.0429,-14.02186 1.0429,-42.691816 z m -77.53208,16.215316 c 3.13256,-0.93854 8.88096,-5.8192 25.38038,-21.549146 24.4187,-23.27987 51.4375,-51.62672 50.8644,-53.36445 -0.2381,-0.72191 -4.0761,-1.42806 -9.9086,-1.8231 -12.475,-0.84493 -149.29823,-1.05849 -153.3936,-0.23942 -2.31429,0.46286 -3.1579,1.18942 -3.1579,2.71976 0,1.87587 37.60262,40.3301 63.7524,65.196226 10.34005,9.83247 16.66143,11.99673 26.46292,9.06013 z"
       id="path1-5"
       clip-path="url(#clipPath5)"
       transform="matrix(2.1156547,0,0,2.0184501,-601.4888,-507.1473)" />
  </g>
</svg>
